<svg xmlns="http://www.w3.org/2000/svg" width="880" height="330" viewBox="0 0 880 330" role="img" aria-labelledby="t d" font-family="ui-monospace,SFMono-Regular,Menlo,Monaco,Consolas,'Liberation Mono','DejaVu Sans Mono',monospace"><title id="t">Hackathon achievements</title><desc id="d">Winner: Build2Break 2026 (1st of 100+ teams), Anokha Techfair 2026 (1st of 150+ teams), DevX Code:Create:Conquer (1st of 120+ teams). Finalist: AI-Verse 2026 (top 5 of 200+), Kriya Ideathon 2025. Also competed: Google GenAI Hackathon, Google Agentic AI Hackathon, Walmart Sparkathon, Smart India Hackathon 2024.</desc><defs>
<linearGradient id="bg" x1="0" y1="0" x2="1" y2="1"><stop offset="0" stop-color="#0B1220"/><stop offset="1" stop-color="#0A1324"/></linearGradient>
<radialGradient id="blob" cx="0" cy="0" r="1" gradientUnits="userSpaceOnUse" gradientTransform="translate(774 0) scale(396)">
  <stop offset="0" stop-color="#A78BFA" stop-opacity=".16"/><stop offset="1" stop-color="#A78BFA" stop-opacity="0"/></radialGradient>
<radialGradient id="blob2" cx="0" cy="0" r="1" gradientUnits="userSpaceOnUse" gradientTransform="translate(0 330) scale(308)">
  <stop offset="0" stop-color="#A78BFA" stop-opacity=".10"/><stop offset="1" stop-color="#A78BFA" stop-opacity="0"/></radialGradient>
<pattern id="grid" width="22" height="22" patternUnits="userSpaceOnUse"><path d="M22 0H0V22" fill="none" stroke="#94A3B8" stroke-opacity=".05"/></pattern>
<linearGradient id="shimmer" x1="0" y1="0" x2="880" y2="0" gradientUnits="userSpaceOnUse">
  <stop offset="0" stop-color="#A78BFA" stop-opacity="0"/><stop offset=".45" stop-color="#A78BFA" stop-opacity=".85"/>
  <stop offset=".55" stop-color="#A78BFA" stop-opacity="1"/><stop offset="1" stop-color="#A78BFA" stop-opacity="0"/>
  <animateTransform attributeName="gradientTransform" type="translate" values="-880 0;880 0" dur="8.0s" repeatCount="indefinite"/>
</linearGradient>
<linearGradient id="accent" x1="0" y1="0" x2="1" y2="0"><stop offset="0" stop-color="#A78BFA"/><stop offset=".5" stop-color="#22D3EE"/><stop offset="1" stop-color="#34D399"/></linearGradient>
<clipPath id="card"><rect x="1" y="1" width="878" height="328" rx="16"/></clipPath>
</defs><g clip-path="url(#card)"><rect width="880" height="330" fill="url(#bg)"/><rect width="880" height="330" fill="url(#grid)"/><rect width="880" height="330" fill="url(#blob)"/><rect width="880" height="330" fill="url(#blob2)"/></g><rect x=".5" y=".5" width="879" height="329" rx="16" fill="none" stroke="#94A3B8" stroke-opacity=".16"/><rect x=".5" y=".5" width="879" height="329" rx="16" fill="none" stroke="url(#shimmer)" opacity=".55"/><circle cx="22" cy="20" r="4.5" fill="#FF5F57"/><circle cx="38" cy="20" r="4.5" fill="#FEBC2E"/><circle cx="54" cy="20" r="4.5" fill="#28C840"/><text x="80" y="24.5" font-size="12.5" fill="#CBD5E1">achievements.md</text><text x="860" y="24.5" text-anchor="end" font-size="11.5" fill="#64748B">3 wins · 2 finals</text><path d="M1 40.5H879" stroke="#94A3B8" stroke-opacity=".16"/><defs><linearGradient id="gold" x1="0" y1="0" x2="1" y2="1"><stop offset="0" stop-color="#FDE68A"/><stop offset="1" stop-color="#F59E0B"/></linearGradient></defs><g><animate attributeName="opacity" values="0;0;1" keyTimes="0;0.286;1" dur="0.70s" fill="freeze"/><animateTransform attributeName="transform" type="translate" values="0 6;0 6;0 0" keyTimes="0;0.286;1" dur="0.70s" fill="freeze" calcMode="spline" keySplines="0 0 1 1;.2 .7 .3 1"/><rect x="24" y="60" width="266" height="118" rx="14" fill="#0F172A" fill-opacity=".55" stroke="url(#gold)" stroke-opacity=".45"/><g transform="translate(44 82)"><circle cx="18" cy="18" r="22" fill="url(#gold)" fill-opacity=".10"/><path d="M9 6H27V14Q27 25 18 26Q9 25 9 14Z" fill="url(#gold)"/><path d="M9 9H4Q4 18 10 19M27 9H32Q32 18 26 19" fill="none" stroke="url(#gold)" stroke-width="2.2" stroke-linecap="round"/><rect x="16" y="26" width="4" height="5" fill="url(#gold)"/><rect x="11" y="31" width="14" height="4" rx="1.5" fill="url(#gold)"/><path d="M14 10L14 15" stroke="#FFFFFF" stroke-opacity=".45" stroke-width="2" stroke-linecap="round"/></g><text x="100" y="110" font-size="30" font-weight="800" fill="url(#gold)">1st</text><text x="160" y="110" font-size="12" fill="#94A3B8">of 100+ teams</text><text x="44" y="152" font-size="13.5" font-weight="700" fill="#F8FAFC">Build2Break 2026</text></g><g><animate attributeName="opacity" values="0;0;1" keyTimes="0;0.412;1" dur="0.85s" fill="freeze"/><animateTransform attributeName="transform" type="translate" values="0 6;0 6;0 0" keyTimes="0;0.412;1" dur="0.85s" fill="freeze" calcMode="spline" keySplines="0 0 1 1;.2 .7 .3 1"/><rect x="305" y="60" width="266" height="118" rx="14" fill="#0F172A" fill-opacity=".55" stroke="url(#gold)" stroke-opacity=".45"/><g transform="translate(325 82)"><circle cx="18" cy="18" r="22" fill="url(#gold)" fill-opacity=".10"/><path d="M9 6H27V14Q27 25 18 26Q9 25 9 14Z" fill="url(#gold)"/><path d="M9 9H4Q4 18 10 19M27 9H32Q32 18 26 19" fill="none" stroke="url(#gold)" stroke-width="2.2" stroke-linecap="round"/><rect x="16" y="26" width="4" height="5" fill="url(#gold)"/><rect x="11" y="31" width="14" height="4" rx="1.5" fill="url(#gold)"/><path d="M14 10L14 15" stroke="#FFFFFF" stroke-opacity=".45" stroke-width="2" stroke-linecap="round"/></g><text x="381" y="110" font-size="30" font-weight="800" fill="url(#gold)">1st</text><text x="441" y="110" font-size="12" fill="#94A3B8">of 150+ teams</text><text x="325" y="152" font-size="13.5" font-weight="700" fill="#F8FAFC">Anokha Techfair 2026</text></g><g><animate attributeName="opacity" values="0;0;1" keyTimes="0;0.500;1" dur="1.00s" fill="freeze"/><animateTransform attributeName="transform" type="translate" values="0 6;0 6;0 0" keyTimes="0;0.500;1" dur="1.00s" fill="freeze" calcMode="spline" keySplines="0 0 1 1;.2 .7 .3 1"/><rect x="586" y="60" width="266" height="118" rx="14" fill="#0F172A" fill-opacity=".55" stroke="url(#gold)" stroke-opacity=".45"/><g transform="translate(606 82)"><circle cx="18" cy="18" r="22" fill="url(#gold)" fill-opacity=".10"/><path d="M9 6H27V14Q27 25 18 26Q9 25 9 14Z" fill="url(#gold)"/><path d="M9 9H4Q4 18 10 19M27 9H32Q32 18 26 19" fill="none" stroke="url(#gold)" stroke-width="2.2" stroke-linecap="round"/><rect x="16" y="26" width="4" height="5" fill="url(#gold)"/><rect x="11" y="31" width="14" height="4" rx="1.5" fill="url(#gold)"/><path d="M14 10L14 15" stroke="#FFFFFF" stroke-opacity=".45" stroke-width="2" stroke-linecap="round"/></g><text x="662" y="110" font-size="30" font-weight="800" fill="url(#gold)">1st</text><text x="722" y="110" font-size="12" fill="#94A3B8">of 120+ teams</text><text x="606" y="152" font-size="13.5" font-weight="700" fill="#F8FAFC">DevX Code:Create:Conquer</text></g><g><animate attributeName="opacity" values="0;0;1" keyTimes="0;0.615;1" dur="1.30s" fill="freeze"/><animateTransform attributeName="transform" type="translate" values="0 4;0 4;0 0" keyTimes="0;0.615;1" dur="1.30s" fill="freeze" calcMode="spline" keySplines="0 0 1 1;.2 .7 .3 1"/><text x="24" y="210" font-size="12" fill="#64748B">// finalist</text><rect x="24.0" y="220" width="240.8" height="28" rx="14.0" fill="#0F172A" fill-opacity=".55" stroke="#A78BFA" stroke-opacity=".35"/><circle cx="37.0" cy="234.0" r="3" fill="#A78BFA"/><text x="48.0" y="238.3" font-size="12" fill="#CBD5E1">AI-Verse 2026 · top 5 of 200+</text><rect x="274.8" y="220" width="168.8" height="28" rx="14.0" fill="#0F172A" fill-opacity=".55" stroke="#A78BFA" stroke-opacity=".35"/><circle cx="287.8" cy="234.0" r="3" fill="#A78BFA"/><text x="298.8" y="238.3" font-size="12" fill="#CBD5E1">Kriya Ideathon 2025</text></g><g><animate attributeName="opacity" values="0;0;1" keyTimes="0;0.667;1" dur="1.50s" fill="freeze"/><animateTransform attributeName="transform" type="translate" values="0 4;0 4;0 0" keyTimes="0;0.667;1" dur="1.50s" fill="freeze" calcMode="spline" keySplines="0 0 1 1;.2 .7 .3 1"/><text x="24" y="276" font-size="12" fill="#64748B">// also competed</text><rect x="24.0" y="286" width="173.8" height="26" rx="13.0" fill="#0F172A" fill-opacity=".55" stroke="#22D3EE" stroke-opacity=".35"/><text x="35.0" y="303.1" font-size="11.5" fill="#CBD5E1">Google GenAI Hackathon</text><rect x="205.8" y="286" width="208.3" height="26" rx="13.0" fill="#0F172A" fill-opacity=".55" stroke="#22D3EE" stroke-opacity=".35"/><text x="216.8" y="303.1" font-size="11.5" fill="#CBD5E1">Google Agentic AI Hackathon</text><rect x="422.1" y="286" width="146.2" height="26" rx="13.0" fill="#0F172A" fill-opacity=".55" stroke="#22D3EE" stroke-opacity=".35"/><text x="433.1" y="303.1" font-size="11.5" fill="#CBD5E1">Walmart Sparkathon</text><rect x="576.3" y="286" width="201.4" height="26" rx="13.0" fill="#0F172A" fill-opacity=".55" stroke="#22D3EE" stroke-opacity=".35"/><text x="587.3" y="303.1" font-size="11.5" fill="#CBD5E1">Smart India Hackathon 2024</text></g></svg>